<svg id="Layer_1" data-name="Layer 1" xmlns="http://www.w3.org/2000/svg" xmlns:xlink="http://www.w3.org/1999/xlink" viewBox="0 0 63.29 25.03"><defs><style>.cls-1{fill:url(#New_Gradient_Swatch_1);}.cls-2{fill:url(#New_Gradient_Swatch_1-2);}.cls-3{fill:url(#New_Gradient_Swatch_1-3);}</style><linearGradient id="New_Gradient_Swatch_1" x1="32.71" y1="19.31" x2="46.56" y2="19.31" gradientUnits="userSpaceOnUse"><stop offset="0" stop-color="#4776e6"/><stop offset="1" stop-color="#8e54e9"/></linearGradient><linearGradient id="New_Gradient_Swatch_1-2" x1="31.15" y1="9.76" x2="48.13" y2="9.76" xlink:href="#New_Gradient_Swatch_1"/><linearGradient id="New_Gradient_Swatch_1-3" x1="2.03" y1="12.52" x2="61.26" y2="12.52" xlink:href="#New_Gradient_Swatch_1"/></defs><polygon class="cls-1" points="32.71 14.73 39.64 23.88 46.56 14.73 32.71 14.73"/><path class="cls-2" d="M39.64,1.15a8.55,8.55,0,0,0-8.49,8.61,8.49,8.49,0,1,0,17,0A8.55,8.55,0,0,0,39.64,1.15Zm0,12.31a3.7,3.7,0,1,1,3.65-3.7A3.68,3.68,0,0,1,39.64,13.46Z"/><path class="cls-3" d="M9.56,23.14a8.64,8.64,0,0,1-4.84-1.31A6.52,6.52,0,0,1,2,18.28l1.35-.79a5.57,5.57,0,0,0,2.14,3,6.84,6.84,0,0,0,4,1.12,5.75,5.75,0,0,0,3.84-1.15,3.75,3.75,0,0,0,1.34-3,3,3,0,0,0-1.3-2.62,15.49,15.49,0,0,0-4-1.8L8,12.57l-1.31-.48a6.48,6.48,0,0,1-1.26-.57c-.28-.18-.61-.42-1-.71a3.17,3.17,0,0,1-.84-.9,5.46,5.46,0,0,1-.47-1.08,4.47,4.47,0,0,1-.21-1.4,5,5,0,0,1,1.78-4A6.66,6.66,0,0,1,9.12,1.9a7,7,0,0,1,4.12,1.2,7.12,7.12,0,0,1,2.5,3.12L14.41,7A5.3,5.3,0,0,0,9.12,3.4,4.89,4.89,0,0,0,5.74,4.52,3.6,3.6,0,0,0,4.47,7.37a2.83,2.83,0,0,0,1.18,2.5,15.33,15.33,0,0,0,3.85,1.7l2.65,1a10.71,10.71,0,0,1,2.07,1.06,4.37,4.37,0,0,1,1.61,1.65,4.72,4.72,0,0,1,.5,2.22,5.07,5.07,0,0,1-1.86,4.1A7.41,7.41,0,0,1,9.56,23.14ZM24.11,2.22a6.24,6.24,0,0,1,6.41,6.39,6.16,6.16,0,0,1-1.82,4.54A6.25,6.25,0,0,1,24.11,15H18.67v7.85H17.11V2.22Zm0,11.27a4.69,4.69,0,0,0,3.48-1.38A4.76,4.76,0,0,0,29,8.61a4.76,4.76,0,0,0-1.37-3.53,4.66,4.66,0,0,0-3.48-1.39H18.67v9.8ZM61.26,2.22V3.69H54.79V22.81H53.2V3.69H46.73V2.22Z"/></svg>